<svg width="87" height="188" viewBox="0 0 87 188" fill="none" xmlns="http://www.w3.org/2000/svg">
<path d="M74.15 30.36C74.48 27.48 77.07 25.41 79.95 25.74C82.83 26.07 84.9 28.66 84.57 31.54C84.24 34.42 81.65 36.49 78.77 36.16C75.89 35.84 73.82 33.24 74.15 30.36Z" fill="#FCC9A7"/>
<path d="M77.36 29.16L71.31 41.35L76.27 43.98L81.23 35.15L77.36 29.16Z" fill="#FCC9A7"/>
<path d="M37.33 49.75L64.52 64.04C65.6 64.66 66.98 64.24 67.53 63.12L80.14 40.23L72.87 35.5L62.74 52.45L43.6 40.36C40.76 38.17 36.63 39.14 35.06 42.36C33.77 45.05 34.76 48.27 37.33 49.75Z" fill="#F9A772"/>
<path d="M41.69 119.95C41.69 119.95 34.89 131.66 30.98 139.24C30.37 140.42 29.37 141.29 28.48 142.28C25.8 145.26 23.26 148.48 20.29 154.23C15.87 162.8 8.5 180.08 8.5 180.08L3.35001 178.17L8.89999 159.15C8.89999 159.15 9.82999 142.43 20.55 133.46C20.55 133.46 23.46 128.4 25.96 118.54L41.69 119.95Z" fill="#F2C09E"/>
<path d="M51.21 114.89C51.21 114.89 44.15 159.58 45.33 181.55L39.23 181.77L37.44 162.47C37.44 162.47 32.12 149.2 37.51 137.67L35.02 111.73L51.21 114.89Z" fill="#FCC9A7"/>
<path d="M33.58 31.09C33.58 31.09 26.79 37.15 28.51 46.12C30.23 55.1 35.23 58.96 34.39 64.88L53.78 64.18L53.38 53.19C53.38 53.19 59.68 48.38 52.93 40.71L47.12 34.09L41.91 34.76L33.58 31.09Z" fill="#F9A772"/>
<path d="M43.67 29.6L47.6 31.89L50.23 36.32L44.81 34.66L43.67 29.6Z" fill="#F7EBE7"/>
<path d="M41.92 34.76C40.75 34.75 39.51 34.27 38.59 33.79C37.68 33.32 37.12 32.37 37.12 31.34L37.31 12.54L45.53 12.58L45.34 31.14C45.33 33.29 43.79 34.77 41.92 34.76Z" fill="#FCC9A7"/>
<path d="M45.39 25.94L42 21.14C42 21.14 39.92 26.62 45.37 28.32L45.39 25.94Z" fill="#F2C09E"/>
<path d="M52.79 12.62C52.76 18.22 48.2 22.73 42.61 22.71C37.01 22.68 32.49 18.12 32.52 12.53C32.55 6.93 37.11 2.41 42.71 2.44C48.3 2.47 52.82 7.02 52.79 12.62Z" fill="#FCC9A7"/>
<path d="M46.12 26C43.46 25.99 41.32 23.82 41.33 21.16L41.36 14.22L52.79 12.62L52.76 19.42C52.74 23.07 49.77 26.01 46.12 26Z" fill="#FCC9A7"/>
<path d="M52.48 14.89L54.68 18.16C54.99 18.69 54.58 19.34 53.93 19.34L51.36 19.81L52.48 14.89Z" fill="#FCC9A7"/>
<path d="M36.99 27.86L47.13 34.1L44.93 38.43L33.58 31.1C33.58 31.09 35 28.61 36.99 27.86Z" fill="#F7EBE7"/>
<path d="M34.4 64.89L33.01 69.63L54.07 68.87L53.78 64.19L34.4 64.89Z" fill="#F7EBE7"/>
<path d="M54.07 68.87L55.03 122.16C55.03 122.16 33.81 126.34 22.13 119.1C22.13 119.1 26.69 101.96 25.84 94.95C24.26 82.1 26.07 76.55 33.03 69.62L54.07 68.87Z" fill="#E49258"/>
<path d="M37.36 178.89C37.51 178.36 38.07 178.14 38.48 178.46C39.27 179.1 40.67 179.85 42.67 179.56C44.75 179.25 45.48 177.99 45.73 177.09C45.86 176.62 46.3 176.36 46.71 176.54L59.66 182.32C60.45 182.67 61.08 183.37 61.42 184.25C61.74 185.08 61.22 186.01 60.42 186.03L38.52 186.44C37.66 186.46 36.96 185.64 36.99 184.66L37.13 179.82C37.13 179.74 37.14 179.66 37.17 179.58L37.36 178.89Z" fill="#1F252A"/>
<path d="M2.50001 174.47C2.79001 174 3.39001 173.93 3.69001 174.35C4.28001 175.18 5.43001 176.27 7.44001 176.52C9.52001 176.78 10.56 175.75 11.05 174.95C11.3 174.53 11.79 174.4 12.14 174.68L23.1 183.68C23.77 184.23 24.19 185.06 24.29 186.01C24.38 186.9 23.63 187.66 22.86 187.46L1.63001 182.05C0.800012 181.84 0.340002 180.87 0.620002 179.93L2.04002 175.3C2.06002 175.22 2.10002 175.15 2.14002 175.08L2.50001 174.47Z" fill="#1F252A"/>
<path d="M41.37 17L45.68 16.84C45.68 16.84 46.05 13.1 46.89 12.2C47.73 11.3 48.16 7.29999 48.16 7.29999C48.16 7.29999 48.93 9.78999 48.34 12.37L54.56 12.15C54.56 12.15 55.91 1.18999 42.23 0.659992C28.55 0.129992 28.92 13.07 31.61 15.64C33.75 17.68 37.22 21.31 37.22 21.31C37.22 21.31 37.06 17.15 41.37 17Z" fill="#4C1827"/>
<path d="M44.49 15.67C44.55 17.27 43.3 18.61 41.7 18.67C40.1 18.73 38.76 17.48 38.7 15.88C38.64 14.28 39.89 12.94 41.49 12.88C43.09 12.83 44.43 14.07 44.49 15.67Z" fill="#FCC9A7"/>
<path d="M33.51 17.73C33.64 21.34 30.82 24.38 27.21 24.51C23.6 24.64 20.56 21.82 20.43 18.2C20.3 14.59 23.12 11.55 26.73 11.42C30.35 11.29 33.38 14.11 33.51 17.73Z" fill="#4C1827"/>
<path d="M40.76 76.07C43.61 76.57 45.52 79.28 45.03 82.14C44.53 84.99 41.82 86.9 38.96 86.41C36.11 85.91 34.2 83.2 34.69 80.34C35.19 77.48 37.91 75.57 40.76 76.07Z" fill="#FCC9A7"/>
<path d="M42.54 76.73L30.73 69.97L27.81 74.76L36.33 80.24L42.54 76.73Z" fill="#FCC9A7"/>
<path d="M30.05 35.45L11.1 60.35C10.3 61.31 10.47 62.74 11.48 63.48L31.96 79.28L37.88 72.95L22.81 60.63L38.19 43.28C40.84 40.87 40.61 36.63 37.71 34.52C35.3 32.76 31.96 33.18 30.05 35.45Z" fill="#F9A772"/>
<path d="M86.5 18.67L80.84 33.7C80.69 34.11 80.24 34.32 79.83 34.19L72.28 31.81C71.83 31.67 71.59 31.17 71.77 30.73L77.62 15.9C77.78 15.51 78.2 15.3 78.61 15.42L85.97 17.59C86.43 17.73 86.67 18.22 86.5 18.67Z" fill="#1C2226"/>
<path d="M84.59 19.31L80.32 31.45C80.22 31.73 79.92 31.89 79.63 31.82L73.97 30.35C73.63 30.26 73.45 29.9 73.58 29.58L78.43 17.33C78.54 17.05 78.85 16.9 79.14 16.99L84.22 18.58C84.53 18.67 84.7 19 84.59 19.31Z" fill="#EFEFEF"/>
</svg>
